<svg xmlns="http://www.w3.org/2000/svg" version="1.0" width="48" height="48" viewBox="0 0 232.000000 256.000000" preserveAspectRatio="xMidYMid meet">

<g transform="translate(0.000000,256.000000) scale(0.100000,-0.100000)" fill="#fff" stroke="none">
<path d="M1180 2110 l0 -180 -540 0 -540 0 0 -725 0 -725 540 0 540 0 0 -180 0 -180 120 0 120 0 0 60 0 60 60 0 60 0 0 60 0 60 60 0 60 0 0 60 0 60 60 0 60 0 0 60 0 60 60 0 60 0 0 60 0 60 60 0 60 0 0 60 0 60 60 0 60 0 0 53 c0 29 5 58 12 65 7 7 34 12 60 12 l48 0 0 235 0 235 -60 0 -60 0 0 65 0 65 -47 0 c-68 0 -75 -7 -71 -71 l3 -54 58 -3 57 -3 0 -119 0 -120 -55 0 -54 0 -3 -57 -3 -58 -60 -5 -60 -5 -3 -57 -3 -57 -57 -3 -57 -3 -3 -57 -3 -57 -57 -3 -57 -3 -3 -57 -3 -57 -57 -3 -57 -3 -3 -57 -3 -57 -57 -3 -57 -3 -3 -58 -3 -58 -57 3 -57 3 -3 178 -2 177 -540 0 -540 0 2 483 3 482 537 3 536 2 7 32 c4 17 6 97 4 177 l-4 146 58 3 57 3 0 -61 0 -60 60 0 60 0 0 -60 0 -60 60 0 60 0 0 -60 0 -60 60 0 60 0 0 -60 0 -60 60 0 60 0 0 -60 0 -60 60 0 60 0 0 60 0 60 -60 0 -60 0 0 60 0 60 -60 0 -60 0 0 60 0 60 -60 0 -60 0 0 60 0 60 -60 0 -60 0 0 60 0 60 -60 0 -60 0 0 60 0 60 -120 0 -120 0 0 -180z"/>
</g>
</svg>